HIERARCHY
ROOT Hips
{
	OFFSET 0.00 0.00 0.00
	CHANNELS 6 Xposition Yposition Zposition Xrotation Yrotation Zrotation
	JOINT LeftUpLeg
	{
		OFFSET 3.64953 0.00000 0.00000
		CHANNELS 3 Xrotation Yrotation Zrotation
		JOINT LeftLeg
		{
			OFFSET 0.00000 -15.70580 0.00000
			CHANNELS 3 Xrotation Yrotation Zrotation
			JOINT LeftFoot
			{
				OFFSET 0.00000 -15.41867 0.00000
				CHANNELS 3 Xrotation Yrotation Zrotation
				JOINT LeftToeBase
				{
					OFFSET 0.00000 -1.53543 5.73033
					CHANNELS 3 Xrotation Yrotation Zrotation
					End Site
					{
						OFFSET 0.00000 0.00000 2.95275
					}
				}
			}
		}
	}
	JOINT RightUpLeg
	{
		OFFSET -3.64953 0.00000 0.00000
		CHANNELS 3 Xrotation Yrotation Zrotation
		JOINT RightLeg
		{
			OFFSET 0.00000 -15.70580 0.00000
			CHANNELS 3 Xrotation Yrotation Zrotation
			JOINT RightFoot
			{
				OFFSET 0.00000 -15.41867 0.00000
				CHANNELS 3 Xrotation Yrotation Zrotation
				JOINT RightToeBase
				{
					OFFSET 0.00000 -1.53543 5.73033
					CHANNELS 3 Xrotation Yrotation Zrotation
					End Site
					{
						OFFSET 0.00000 0.00000 2.95275
					}
				}
			}
		}
	}
	JOINT Spine
	{
		OFFSET 0.00000 0.03937 0.00000
		CHANNELS 3 Xrotation Yrotation Zrotation
		JOINT Spine1
		{
			OFFSET 0.00000 10.24829 0.00000
			CHANNELS 3 Xrotation Yrotation Zrotation
			JOINT Neck
			{
				OFFSET 0.00000 7.82687 0.00000
				CHANNELS 3 Xrotation Yrotation Zrotation
				JOINT Head
				{
					OFFSET 0.00000 6.90715 0.00000
					CHANNELS 3 Xrotation Yrotation Zrotation
					End Site
					{
						OFFSET 0.00000 4.52755 0.00000
					}
				}
			}
			JOINT LeftShoulder
			{
				OFFSET 0.00000 7.82687 0.00000
				CHANNELS 3 Xrotation Yrotation Zrotation
				JOINT LeftArm
				{
					OFFSET 6.71018 -0.00002 0.00000
					CHANNELS 3 Xrotation Yrotation Zrotation
					JOINT LeftForeArm
					{
						OFFSET 10.94419 -0.00004 0.00000
						CHANNELS 3 Xrotation Yrotation Zrotation
						JOINT LeftHand
						{
							OFFSET 8.52010 -0.00003 0.00000
							CHANNELS 3 Xrotation Yrotation Zrotation
							JOINT LeftHandThumb
							{
								OFFSET 0.00000 0.00000 0.00000
								CHANNELS 3 Xrotation Yrotation Zrotation
								End Site
								{
									OFFSET 0.00000 0.00000 3.93700
								}
							}
							JOINT L_Wrist_End
							{
								OFFSET 3.93700 -0.00001 0.00000
								CHANNELS 3 Xrotation Yrotation Zrotation
							}
						}
					}
				}
			}
			JOINT RightShoulder
			{
				OFFSET 0.00000 7.82687 0.00000
				CHANNELS 3 Xrotation Yrotation Zrotation
				JOINT RightArm
				{
					OFFSET -6.71018 -0.00002 0.00000
					CHANNELS 3 Xrotation Yrotation Zrotation
					JOINT RightForeArm
					{
						OFFSET -10.94419 -0.00004 0.00000
						CHANNELS 3 Xrotation Yrotation Zrotation
						JOINT RightHand
						{
							OFFSET -8.52010 -0.00003 0.00000
							CHANNELS 3 Xrotation Yrotation Zrotation
							JOINT RightHandThumb
							{
								OFFSET 0.00000 0.00000 0.00000
								CHANNELS 3 Xrotation Yrotation Zrotation
								End Site
								{
									OFFSET 0.00000 0.00000 3.93700
								}
							}
							JOINT R_Wrist_End
							{
								OFFSET -5.39369 -0.00002 0.00000
								CHANNELS 3 Xrotation Yrotation Zrotation
							}
						}
					}
				}
			}
		}
	}
}
MOTION
Frames: 9
Frame Time: 0.008333
 43.1262 32.4189 59.3432 -179.2701 44.8308 174.5241 -3.7635 -2.5856 7.7160 60.7592 0.0000 0.0000 1.5194 -8.3389 -5.5148 -6.2516 0.0000 -0.0000 -10.7443 -3.9397 2.8586 14.0838 0.0000 -0.0000 -14.2547 -0.1441 0.8045 2.5717 0.0000 0.0000 -3.6688 2.6718 2.0044 8.9210 1.2465 3.0308 -0.1142 5.0612 -6.7985 -4.4066 6.1888 2.8804 20.0926 10.6539 -5.2136 -23.1627 -44.0464 -74.9042 -0.0001 -20.1475 -0.0000 -10.7789 -0.8314 -13.5261 0.0000 0.0000 0.0000 0.0000 0.0000 0.0000 14.2501 -15.1876 4.7373 -10.2500 33.0737 71.5290 -0.0000 10.8496 0.0000 -24.8743 -5.2265 11.1637 -0.0000 0.0000 -0.0000 -0.0000 0.0000 -0.0000
 43.3909 32.4499 59.2080 -179.3014 44.6421 174.5189 -5.3495 -2.5629 7.6722 63.2177 -0.0000 0.0000 2.1438 -7.2914 -5.2787 0.9146 0.0000 -0.0000 -9.9766 -4.7590 2.9362 13.7371 -0.0000 0.0000 -14.6129 0.4249 1.2994 2.5502 0.0000 0.0000 -3.6411 2.8234 2.0250 8.9320 1.3971 3.0266 -0.1223 5.1556 -6.7534 -4.3079 6.2769 2.8396 20.2667 10.5952 -5.3425 -22.6802 -44.1025 -74.4555 -0.0001 -19.5446 -0.0000 -10.8848 -0.7740 -13.5443 0.0000 -0.0000 -0.0000 0.0000 -0.0000 -0.0000 14.2154 -15.0278 4.8011 -10.5681 32.9691 70.9800 -0.0000 11.5028 0.0000 -24.6399 -5.4079 11.2876 -0.0000 0.0000 0.0000 -0.0000 0.0000 0.0000
 43.6371 32.4756 59.0864 -179.4023 44.2860 174.5044 -7.0795 -2.6996 7.6152 65.6473 -0.0000 0.0000 2.3788 -6.4653 -4.2777 7.5042 -0.0000 -0.0000 -9.3152 -5.7243 3.0709 13.4906 -0.0000 0.0000 -14.9912 0.8775 1.3428 2.5742 0.0000 0.0000 -3.6204 2.8582 2.0942 9.0280 1.4337 3.0563 -0.1252 5.2423 -6.7249 -4.4549 6.3909 2.7232 20.3068 10.5709 -5.4223 -22.2460 -44.1528 -74.1180 -0.0001 -18.8728 -0.0000 -10.8528 -0.7253 -13.6334 0.0000 0.0000 -0.0000 0.0000 0.0000 -0.0000 14.1662 -14.9794 4.8569 -11.1256 33.2079 70.4869 -0.0000 11.8740 0.0000 -24.8343 -5.2597 11.2925 -0.0000 0.0000 -0.0000 -0.0000 0.0000 -0.0000
 43.8848 32.5027 58.9508 -179.4887 44.0910 174.5581 -8.6420 -2.6214 7.4859 67.6975 -0.0000 -0.0000 2.0120 -5.8289 -2.9537 9.7979 0.0000 0.0000 -8.6419 -6.6910 3.1197 13.2279 -0.0000 0.0000 -15.3633 1.5310 1.6031 2.5233 0.0000 0.0000 -3.6035 2.9935 2.1119 9.0289 1.5679 3.0509 -0.1201 5.3156 -6.6950 -4.3914 6.4797 2.6806 20.4710 10.6307 -5.5697 -21.9209 -44.2178 -73.7776 -0.0001 -18.1027 -0.0000 -9.7572 -0.5726 -14.4390 -0.0000 0.0000 0.0000 -0.0000 0.0000 0.0000 14.1646 -14.8462 4.9401 -11.5649 33.1875 69.9148 -0.0000 12.3708 0.0000 -24.9129 -5.1663 11.1703 -0.0000 -0.0000 0.0000 -0.0000 -0.0000 0.0000
 44.1196 32.5292 58.8275 -179.6309 43.8383 174.6463 -10.2908 -2.6787 7.3045 69.6366 -0.0000 0.0000 1.0948 -5.0118 -2.0986 8.9012 -0.0000 -0.0000 -7.9834 -7.2763 3.2240 12.8313 -0.0000 0.0000 -15.6559 1.7727 1.8089 2.4959 0.0000 0.0000 -3.5681 3.0591 2.1284 9.0575 1.6307 3.0494 -0.1228 5.4120 -6.6719 -4.5016 6.6067 2.5740 20.5627 10.6564 -5.7105 -21.4277 -44.3000 -73.3621 -0.0001 -17.5265 -0.0000 -9.6869 -0.5628 -14.3849 0.0000 0.0000 -0.0000 0.0000 0.0000 -0.0000 14.1861 -14.7657 5.0680 -12.2004 33.3253 69.3651 -0.0000 12.7258 0.0000 -25.2657 -4.8405 10.8792 -0.0000 0.0000 -0.0000 -0.0000 0.0000 -0.0000
 44.3568 32.5570 58.6979 -179.7637 43.6750 174.7560 -11.8342 -2.6064 7.1186 71.2388 -0.0000 -0.0000 -0.4060 -4.1533 -1.8521 8.1271 -0.0000 -0.0000 -7.3296 -7.7652 3.3166 12.4373 -0.0000 -0.0000 -15.9377 2.0648 1.9511 2.4472 0.0000 0.0000 -3.5383 3.1685 2.1183 9.0434 1.7360 3.0316 -0.0965 5.5051 -6.6512 -4.5479 6.7393 2.5358 20.6548 10.7254 -5.8475 -20.9655 -44.2731 -73.0116 -0.0001 -16.9636 -0.0000 -9.5678 -0.5107 -14.3594 0.0000 -0.0000 0.0000 0.0000 -0.0000 0.0000 14.1993 -14.6685 5.1874 -12.8300 33.3479 68.8263 -0.0000 13.0638 0.0000 -25.4141 -4.6901 10.7342 -0.0000 0.0000 -0.0000 -0.0000 0.0000 -0.0000
 44.5961 32.5863 58.5604 -179.8253 43.6706 174.8420 -13.2002 -2.3805 6.9077 72.4660 -0.0000 0.0000 -1.9490 -3.5581 -1.6352 7.4264 -0.0000 0.0000 -6.5980 -7.8225 3.4211 11.9269 -0.0000 0.0000 -16.1518 2.1700 2.0737 2.3030 0.0000 0.0000 -3.4879 3.3441 2.1066 9.0132 1.9047 2.9952 -0.0657 5.6259 -6.6908 -4.5041 6.8689 2.5921 20.7488 10.8337 -5.9897 -20.4973 -44.2123 -72.6876 -0.0001 -16.3784 -0.0000 -9.4181 -0.5779 -14.3134 0.0000 0.0000 0.0000 0.0000 0.0000 0.0000 13.9920 -14.5467 5.1546 -13.3711 33.1883 68.4654 -0.0000 13.2941 0.0000 -25.3058 -4.5038 10.5428 0.0000 -0.0000 0.0000 0.0000 -0.0000 0.0000
 44.8305 32.6164 58.4313 -179.9249 43.4461 174.9749 -14.6643 -2.3382 6.6369 73.5337 0.0000 0.0000 -3.1642 -3.3050 -1.2148 7.0364 -0.0000 0.0000 -5.9058 -8.4238 3.4698 11.5148 0.0000 -0.0000 -16.4136 2.5663 2.0630 2.2707 -0.0000 -0.0000 -3.4383 3.4264 2.0358 9.0161 1.9818 2.9639 0.0215 5.6809 -6.6158 -4.6387 7.0121 2.4780 20.8531 10.8928 -6.0479 -20.1976 -43.9327 -72.5120 -0.0001 -15.8536 -0.0000 -9.2107 -0.5019 -14.2561 -0.0000 0.0000 0.0000 -0.0000 0.0000 0.0000 14.1333 -14.4548 5.3515 -14.1631 33.1728 67.9199 -0.0001 13.6422 0.0000 -25.2791 -4.4213 10.3613 -0.0000 0.0000 0.0000 -0.0000 0.0000 0.0000
 45.0675 32.6459 58.2925 -179.9722 43.4689 175.0693 -15.9991 -2.0489 6.3973 74.2791 -0.0000 0.0000 -4.0775 -3.3597 -0.2032 6.8720 0.0000 0.0000 -5.1825 -8.4191 3.5790 11.0085 0.0000 -0.0000 -16.6113 2.5891 2.0536 2.2197 0.0000 0.0000 -3.3790 3.5945 2.0096 8.9932 2.1407 2.9147 0.0392 5.8772 -6.7268 -4.5652 7.1841 2.6154 20.9076 11.0410 -6.1304 -19.7382 -43.7860 -72.2833 -0.0001 -15.3360 -0.0000 -9.1835 -0.4996 -14.1149 -0.0000 0.0000 0.0000 -0.0000 0.0000 0.0000 13.9099 -14.3675 5.2914 -14.8295 33.0068 67.6805 -0.0001 13.7821 0.0000 -25.2675 -4.1340 10.0004 -0.0000 -0.0000 -0.0000 -0.0000 -0.0000 -0.0000
